<svg xmlns="http://www.w3.org/2000/svg" viewBox="0 0 400 210" fill="none" stroke="#8C7A5C" stroke-width="1.1" stroke-linecap="round" stroke-linejoin="round">
  <path d="M4.0,206.0 L17.1,185.2 L36.8,169.7 L51.6,150.3 L63.8,128.8 L80.6,111.0 L96.0,92.0" stroke-width="1.2"/>
  <path d="M96.0,92.0 L110.5,107.6 L127.2,120.2 L148.1,127.2 L164.7,140.0 L177.7,157.5 L196.0,168.0" stroke-width="1.2"/>
  <path d="M110.0,180.0 L125.8,153.1 L142.7,126.9 L161.4,101.8 L174.4,73.2 L190.9,46.7 L207.0,20.0" stroke-width="1.2"/>
  <path d="M207.0,20.0 L223.3,45.6 L238.3,72.0 L254.4,97.7 L274.1,121.1 L291.1,146.2 L304.0,174.0" stroke-width="1.2"/>
  <path d="M238.0,170.0 L250.4,155.6 L267.3,146.5 L281.2,133.8 L294.6,120.5 L307.3,106.6 L323.0,96.0" stroke-width="1.2"/>
  <path d="M323.0,96.0 L332.5,115.8 L350.3,129.7 L363.6,146.8 L369.7,169.0 L387.6,182.9 L398.0,202.0" stroke-width="1.2"/>
  <path d="M9.5,195.0 L30.0,172.0 L52.9,151.4 L73.8,128.8 L96.0,107.4" stroke-width="0.8" opacity="0.7"/>
  <path d="M115.5,169.0 L137.2,134.8 L162.2,102.8 L185.0,69.4 L207.0,35.4" stroke-width="0.8" opacity="0.7"/>
  <path d="M243.5,159.0 L264.7,149.3 L284.6,137.5 L304.3,125.3 L323.0,111.4" stroke-width="0.8" opacity="0.7"/>
  <path d="M108.7,101.7 L104.4,107.3 M122.2,111.9 L117.2,118.4 M138.2,124.1 L132.5,131.7 M151.1,133.9 L144.6,142.3 M164.8,144.3 L157.7,153.7 M181.1,156.7 L173.2,167.2" stroke-width="0.6" opacity="0.55"/>
  <path d="M72.3,121.3 L68.1,117.9 M48.7,150.7 L43.3,146.3 M25.4,179.5 L18.9,174.3" stroke-width="0.6" opacity="0.55"/>
  <path d="M218.6,38.4 L212.6,42.1 M235.9,65.9 L228.7,70.4 M249.5,87.4 L241.3,92.6 M265.0,112.1 L255.7,117.9 M275.0,127.9 L264.9,134.2 M288.7,149.7 L277.7,156.7" stroke-width="0.6" opacity="0.55"/>
  <path d="M180.0,64.5 L175.3,61.6 M161.3,95.3 L155.7,91.9 M132.9,142.3 L125.8,138.0" stroke-width="0.6" opacity="0.55"/>
  <path d="M334.7,112.5 L328.7,116.7 M346.0,128.4 L339.0,133.4 M353.7,139.4 L346.0,144.9 M368.1,159.7 L359.1,166.1 M375.2,169.8 L365.5,176.6 M388.1,187.9 L377.2,195.6" stroke-width="0.6" opacity="0.55"/>
  <path d="M302.4,114.0 L298.9,109.9 M278.3,134.9 L273.8,129.7 M257.5,153.0 L252.0,146.8" stroke-width="0.6" opacity="0.55"/>
</svg>
